<?xml version="1.0" standalone="no"?>
<!DOCTYPE svg PUBLIC "-//W3C//DTD SVG 20010904//EN"
 "http://www.w3.org/TR/2001/REC-SVG-20010904/DTD/svg10.dtd">
<svg version="1.0" xmlns="http://www.w3.org/2000/svg"
 width="800.000000pt" height="800.000000pt" viewBox="0 0 800.000000 800.000000"
 preserveAspectRatio="xMidYMid meet">
<metadata>
Created by potrace 1.11, written by Peter Selinger 2001-2013
</metadata>
<g transform="translate(0.000000,800.000000) scale(0.100000,-0.100000)"
fill="#000000" stroke="none">
<path d="M3749 6346 c-2 -2 -42 -8 -89 -12 -94 -8 -98 -8 -155 -17 -22 -4 -57
-9 -78 -12 -21 -3 -79 -14 -130 -26 -51 -11 -103 -22 -117 -25 -14 -3 -78 -21
-143 -40 -481 -141 -903 -387 -1232 -719 -60 -61 -123 -128 -140 -149 -16 -20
-40 -49 -53 -64 -30 -35 -151 -214 -184 -272 -97 -169 -192 -406 -223 -558 -2
-9 -8 -38 -14 -65 -6 -26 -13 -62 -16 -80 -3 -17 -8 -50 -11 -72 -13 -85 -12
-401 2 -500 64 -465 284 -896 639 -1250 253 -254 573 -467 902 -600 48 -20
102 -42 118 -50 78 -34 399 -124 499 -139 21 -4 41 -8 45 -10 3 -2 31 -7 61
-11 93 -12 104 -14 135 -19 72 -14 215 -20 420 -20 193 0 282 4 400 19 17 2
50 6 75 9 24 3 83 13 130 22 47 9 96 18 110 21 55 10 250 64 340 93 355 118
721 322 985 552 75 65 235 227 280 283 22 28 45 56 52 63 57 59 212 310 272
440 133 292 190 557 185 865 -4 242 -9 286 -59 482 -131 511 -446 950 -936
1303 -351 253 -820 442 -1286 518 -16 2 -42 6 -59 9 -17 3 -56 8 -85 11 -30 3
-67 8 -84 10 -39 6 -551 15 -556 10z"/>
</g>
</svg>
